<?xml version="1.0" encoding="utf-8"?>
<svg
  version="1.1"
  xmlns="http://www.w3.org/2000/svg"
  xmlns:xlink="http://www.w3.org/1999/xlink"
  x="0px"
  y="0px"
  viewBox="0 0 1000 1000"
  style="enable-background: new 0 0 1000 1000"
  xml:space="preserve"
>
  <style type="text/css">
    .st0 {
      display: none;
    }
    .st1 {
      fill: #598ca6;
    }
    .st2 {
      fill: none;
      stroke: #598ca6;
      stroke-width: 16;
      stroke-miterlimit: 10;
    }
    .st3 {
      fill: #999999;
    }
    .st4 {
      fill: #ffffff;
    }
    .st5 {
      fill: none;
      stroke: #999999;
      stroke-width: 40;
      stroke-miterlimit: 10;
    }
  </style>
  <g id="Layer_1" class="st0"></g>
  <g id="Layer_2">
    <g>
      <rect x="556.7" y="182.8" class="st1" width="52.1" height="247.2" />
      <path
        class="st1"
        d="M603.8,187.8v237.2h-42.1V187.8H603.8 M613.8,177.8h-10h-42.1h-10v10v237.2v10h10h42.1h10v-10V187.8V177.8
			L613.8,177.8z"
      />
    </g>
    <rect x="511.2" y="136.1" class="st2" width="140.3" height="42.1" />
    <g>
      <rect x="556.7" y="41.3" class="st1" width="52.1" height="85.1" />
      <g>
        <path
          class="st1"
          d="M603.8,46.3v75.1h-42.1V46.3H603.8 M613.8,36.3h-10h-42.1h-10v10v75.1v10h10h42.1h10v-10V46.3V36.3
				L613.8,36.3z"
        />
      </g>
    </g>
    <g>
      <path
        class="st3"
        d="M591.4,928l95.2-132.7c30.7-42.8,46.9-93.3,46.9-146V262.7h52.1v394.5c0,49.7-14.7,97.7-42.4,138.9
			L634.4,957.7L591.4,928z"
      />
      <path
        class="st3"
        d="M780.5,267.7v389.5c0,48.5-14.5,95.9-41.5,136.1L633,950.7l-34.7-23.9l92.2-128.6
			c31.1-43.4,47.9-95.5,47.9-148.9V267.7H780.5 M790.5,257.7h-10h-42.1h-10v10v381.7c0,51.6-15.9,101.1-46,143.1L590.3,921l-5.9,8.3
			l8.4,5.8l34.7,23.9l8.3,5.7l5.6-8.4l106-157.5c28.3-42,43.2-91,43.2-141.7V267.7V257.7L790.5,257.7z"
      />
    </g>
    <g id="dot">
      <ellipse
        transform="matrix(0.2898 -0.9571 0.9571 0.2898 390.008 839.8599)"
        class="st3"
        cx="760.9"
        cy="157.1"
        rx="77.6"
        ry="77.6"
      />
      <path
        class="st4"
        d="M760.9,108c27.1,0,49.1,22,49.1,49.1s-22,49.1-49.1,49.1s-49.1-22-49.1-49.1S733.8,108,760.9,108 M760.9,51
			c-58.5,0-106.1,47.6-106.1,106.1s47.6,106.1,106.1,106.1S867,215.6,867,157.1S819.4,51,760.9,51L760.9,51z"
      />
    </g>
    <polygon class="st5" points="668.3,828.7 598.4,926.8 633,950.7 698.3,849.3 	" />
    <path
      class="st1"
      d="M400.4,397C284.2,397,190,491.2,190,607.4s94.2,210.4,210.4,210.4s210.4-94.2,210.4-210.4S516.6,397,400.4,397
		z M404.1,677.5c-41.6,2.1-75.8-32.1-73.7-73.7c1.8-35.6,30.8-64.6,66.4-66.4c41.6-2.1,75.8,32.1,73.7,73.7
		C468.6,646.7,439.7,675.6,404.1,677.5z"
    />
    <circle class="st1" cx="400.4" cy="607.4" r="14" />
    <path
      class="st4"
      d="M354.6,512.7L321,443.2c-45.8,22.2-80.9,62.9-95.5,112.4l74,22C308,548.9,328.2,525.5,354.6,512.7z"
    />
    <path
      class="st4"
      d="M446.2,702.2l33.6,69.5c45.8-22.2,80.9-62.9,95.5-112.4l-74-22C492.8,665.9,472.6,689.4,446.2,702.2z"
    />
  </g>
</svg>
